<?xml version="1.0" standalone="no"?><!DOCTYPE svg PUBLIC "-//W3C//DTD SVG 1.1//EN" "http://www.w3.org/Graphics/SVG/1.1/DTD/svg11.dtd"><svg width="94.25" height="64" viewBox="0 0 94.25 64" version="1.1" xmlns="http://www.w3.org/2000/svg" xmlns:xlink="http://www.w3.org/1999/xlink"><defs><style type="text/css"><![CDATA[
@font-face { font-family: ifont; src: url("//at.alicdn.com/t/font_1442373896_4754455.eot?#iefix") format("embedded-opentype"), url("//at.alicdn.com/t/font_1442373896_4754455.woff") format("woff"), url("//at.alicdn.com/t/font_1442373896_4754455.ttf") format("truetype"), url("//at.alicdn.com/t/font_1442373896_4754455.svg#ifont") format("svg"); }

]]></style></defs><g class="transform-group"><g transform="scale(0.0625, 0.0625)"><path d="M1849.925457 511.999488M1204.385935 209.512525c-16.835134-16.835417-57.495906-33.389425-100.902327 10.015088-0.988556 0.449231-1.913665 1.028422-2.749742 1.722223C957.726819 339.771087 824.977835 472.162218 706.042031 614.835519l-9.198895-9.199514c-4.796442-4.795208-12.56981-4.795208-17.367276 0-4.795419 4.797255-4.795419 12.571304 0 17.368559l25.626735 25.624585-86.838426 64.138722c-3.583772 2.648314-5.453433 7.029083-4.883427 11.446692 0.059354 0.459464 5.354168 44.32958-19.804896 76.040784L331.005683 800.255347c-6.781742 0-12.280202 5.498219-12.280202 12.279662s5.49846 12.279662 12.280202 12.279662l265.552206 0c0.80947 0.163729 1.633267 0.25992 2.462181 0.25992 2.0467 0 4.114891-0.511653 6.006042-1.574867 12.655772-7.104808 50.280264-25.544767 72.11037-25.544767 5.102424 0 7.444873 1.041725 8.387378 1.662871 5.399196 3.560079 12.636328 2.323926 16.544502-2.830462l65.22527-85.974008 24.638179 24.637095c2.397709 2.398627 5.539394 3.597941 8.682103 3.597941s6.28644-1.199314 8.683126-3.597941c4.795419-4.797255 4.795419-12.571304 0-17.366512l-10.251922-10.251471c142.686738-118.937737 275.08369-251.681908 393.601967-394.676527 0.693831-0.83604 1.272024-1.760085 1.723322-2.749621C1240.590017 264.19079 1221.221069 226.345895 1204.385935 209.512525zM688.104749 774.557084c-3.359659-0.773619-7.022229-1.163498-10.971337-1.163498-14.461985 0-31.906012 5.22602-47.186676 11.235891 8.416032-22.922036 8.853002-45.001892 8.364864-56.137499l84.259583-62.233328 2.844913 2.843765-34.904428 34.90187c-0.775699-0.090051-1.558562-0.149403-2.352682-0.149403-5.309141 0-10.300019 2.067076-14.050598 5.818513-7.747784 7.74642-7.749831 20.35661-0.002047 28.105077 3.752625 3.753483 8.743504 5.82056 14.051621 5.82056 5.308117 0 10.297973-2.067076 14.053668-5.821583 4.46897-4.468774 6.342724-10.553346 5.655033-16.393349l34.915685-34.912103 6.908637 6.90731L688.104749 774.557084zM1172.687663 298.752923C1054.921549 440.680234 923.372954 572.407239 781.608255 690.396373l-58.128337-58.124757C841.4681 490.521336 973.199874 358.977502 1115.141613 241.209403c42.277666-42.27683 68.940031-17.268275 71.877046-14.331389C1189.956697 229.815923 1215.733865 255.708614 1172.687663 298.752923z" fill="#fff"></path></g></g></svg>