<?xml version="1.0" standalone="no"?><!DOCTYPE svg PUBLIC "-//W3C//DTD SVG 1.1//EN" "http://www.w3.org/Graphics/SVG/1.1/DTD/svg11.dtd"><svg width="80" height="80" viewBox="0 0 80 80" version="1.1" xmlns="http://www.w3.org/2000/svg" xmlns:xlink="http://www.w3.org/1999/xlink"><defs><style type="text/css"><![CDATA[
@font-face { font-family: ifont; src: url("//at.alicdn.com/t/font_1442373896_4754455.eot?#iefix") format("embedded-opentype"), url("//at.alicdn.com/t/font_1442373896_4754455.woff") format("woff"), url("//at.alicdn.com/t/font_1442373896_4754455.ttf") format("truetype"), url("//at.alicdn.com/t/font_1442373896_4754455.svg#ifont") format("svg"); }

]]></style></defs><g class="transform-group"><g transform="scale(0.078125, 0.078125)"><path d="M813.365722 660.100036c-9.216919-9.211802-24.14491-9.211802-33.356712 0-9.188266 9.211802-9.188266 24.161283 0.023536 33.373085 71.28965 71.294766 134.12986 189.647291 134.12986 290.446022 0 13.035898 10.552334 23.588231 23.590278 23.588231 13.035898 0 23.583115-10.552334 23.583115-23.588231C961.335798 870.518397 893.572462 740.304729 813.365722 660.100036zM513.178849 17.22429c-156.082848 0-283.050588 126.972856-283.050588 283.050588 0 111.331621 64.605414 207.830419 158.288073 254.024507-65.564251 20.055778-125.621069 55.982012-175.444824 105.822141-80.20674 80.183204-147.953703 210.396871-147.953703 323.798641 0 13.035898 10.549264 23.588231 23.588231 23.588231 13.035898 0 23.588231-10.552334 23.588231-23.588231 0-100.79873 62.83714-219.151255 134.12986-290.446022 68.706825-68.729338 159.288866-107.665115 256.060887-110.375853 3.583618 0.135076 7.178493 0.226151 10.794857 0.226151 156.082848 0 283.045471-126.962623 283.045471-283.048541C796.22432 144.196123 669.261697 17.22429 513.178849 17.22429zM517.113461 536.098861c-1.295506-0.220011-2.62478-0.341784-3.981684-0.341784-3.586688 0.001023-7.166213 0.046049-10.737552 0.135076-125.066437-5.658883-225.089501-109.179608-225.089501-235.618299 0-130.056078 105.821117-235.870032 235.875149-235.870032s235.872079 105.813954 235.872079 235.870032C749.050927 429.011914 645.358287 533.988804 517.113461 536.098861z" fill="#fff"></path></g></g></svg>