<?xml version="1.0" standalone="no"?><!DOCTYPE svg PUBLIC "-//W3C//DTD SVG 1.1//EN" "http://www.w3.org/Graphics/SVG/1.1/DTD/svg11.dtd"><svg width="80" height="80" viewBox="0 0 80 80" version="1.1" xmlns="http://www.w3.org/2000/svg" xmlns:xlink="http://www.w3.org/1999/xlink"><defs><style type="text/css"><![CDATA[
@font-face { font-family: ifont; src: url("//at.alicdn.com/t/font_1442373896_4754455.eot?#iefix") format("embedded-opentype"), url("//at.alicdn.com/t/font_1442373896_4754455.woff") format("woff"), url("//at.alicdn.com/t/font_1442373896_4754455.ttf") format("truetype"), url("//at.alicdn.com/t/font_1442373896_4754455.svg#ifont") format("svg"); }

]]></style></defs><g class="transform-group"><g transform="scale(0.078125, 0.078125)"><path d="M686.042383 468.48902l87.021959 0 0 87.020936-87.021959 0 0-87.020936ZM250.933611 903.595746l87.021959 0 0 87.020936-87.021959 0 0-87.020936ZM599.021447 468.48902 511.999488 468.48902 511.999488 555.509956 599.020424 555.509956 599.020424 642.530892 686.042383 642.530892 686.042383 555.509956 599.021447 555.509956ZM424.977529 555.509956 424.977529 642.530892 511.998465 642.530892 511.998465 729.551828 599.021447 729.551828 599.021447 642.530892 512.000512 642.530892 512.000512 555.509956ZM337.956593 642.531915 337.956593 729.552851 424.977529 729.552851 424.977529 816.573787 511.999488 816.573787 511.999488 729.552851 424.978553 729.552851 424.978553 642.531915ZM250.934634 729.553874 250.934634 816.57481 337.95557 816.57481 337.95557 903.595746 424.977529 903.595746 424.977529 816.57481 337.956593 816.57481 337.956593 729.553874ZM250.933611 33.383318l87.021959 0 0 87.020936-87.021959 0 0-87.020936ZM599.021447 381.467061l87.020936 0 0 87.021959-87.020936 0 0-87.021959ZM424.979576 381.462968 424.979576 468.485951 512.000512 468.485951 512.000512 381.467061 599.020424 381.467061 599.020424 294.444079 511.999488 294.444079 511.999488 381.462968ZM250.936681 207.41905 250.936681 294.439986 337.957617 294.439986 337.957617 207.421096 424.977529 207.421096 424.977529 120.399137 337.956593 120.399137 337.956593 207.41905ZM337.95864 294.439986 337.95864 381.462968 424.979576 381.462968 424.979576 294.444079 511.998465 294.444079 511.998465 207.421096 424.977529 207.421096 424.977529 294.439986Z" fill="#f5f100"></path></g></g></svg>