<?xml version="1.0" standalone="no"?><!DOCTYPE svg PUBLIC "-//W3C//DTD SVG 1.1//EN" "http://www.w3.org/Graphics/SVG/1.1/DTD/svg11.dtd"><svg width="80" height="80" viewBox="0 0 80 80" version="1.1" xmlns="http://www.w3.org/2000/svg" xmlns:xlink="http://www.w3.org/1999/xlink"><defs><style type="text/css"><![CDATA[
@font-face { font-family: ifont; src: url("//at.alicdn.com/t/font_1442373896_4754455.eot?#iefix") format("embedded-opentype"), url("//at.alicdn.com/t/font_1442373896_4754455.woff") format("woff"), url("//at.alicdn.com/t/font_1442373896_4754455.ttf") format("truetype"), url("//at.alicdn.com/t/font_1442373896_4754455.svg#ifont") format("svg"); }

]]></style></defs><g class="transform-group"><g transform="scale(0.078125, 0.078125)"><path d="M468.487485 250.935146l87.020936 0 0 87.021959-87.020936 0 0-87.021959ZM903.595234 686.042895l87.020936 0 0 87.022982-87.020936 0 0-87.022982ZM468.487485 424.978041 468.487485 512 555.508421 512 555.508421 424.979064 642.529357 424.979064 642.529357 337.957105 555.508421 337.957105 555.508421 424.978041ZM555.508421 599.021959 642.529357 599.021959 642.529357 512.001023 729.551316 512.001023 729.551316 424.978041 642.529357 424.978041 642.529357 511.998977 555.508421 511.998977ZM642.53038 686.042895 729.55234 686.042895 729.55234 599.021959 816.573275 599.021959 816.573275 512 729.55234 512 729.55234 599.020936 642.53038 599.020936ZM729.55234 773.063831 816.574299 773.063831 816.574299 686.042895 903.595234 686.042895 903.595234 599.021959 816.574299 599.021959 816.574299 686.042895 729.55234 686.042895ZM33.382806 686.042895l87.020936 0 0 87.022982-87.020936 0 0-87.022982ZM381.465526 337.957105l87.021959 0 0 87.020936-87.021959 0 0-87.020936ZM381.461433 599.019912 468.484416 599.019912 468.484416 511.998977 381.465526 511.998977 381.465526 424.979064 294.442544 424.979064 294.442544 512 381.461433 512ZM207.417515 773.061784 294.438451 773.061784 294.438451 686.040848 207.419562 686.040848 207.419562 599.021959 120.398626 599.021959 120.398626 686.042895 207.417515 686.042895ZM294.438451 686.040848 381.461433 686.040848 381.461433 599.019912 294.442544 599.019912 294.442544 512.001023 207.419562 512.001023 207.419562 599.021959 294.438451 599.021959Z" fill="#f4c600"></path></g></g></svg>