<?xml version="1.0" standalone="no"?><!DOCTYPE svg PUBLIC "-//W3C//DTD SVG 1.1//EN" "http://www.w3.org/Graphics/SVG/1.1/DTD/svg11.dtd"><svg width="16" height="16" viewBox="0 0 16 16" version="1.1" xmlns="http://www.w3.org/2000/svg" xmlns:xlink="http://www.w3.org/1999/xlink"><defs><style type="text/css"><![CDATA[
@font-face { font-family: ifont; src: url("//at.alicdn.com/t/font_1442373896_4754455.eot?#iefix") format("embedded-opentype"), url("//at.alicdn.com/t/font_1442373896_4754455.woff") format("woff"), url("//at.alicdn.com/t/font_1442373896_4754455.ttf") format("truetype"), url("//at.alicdn.com/t/font_1442373896_4754455.svg#ifont") format("svg"); }

]]></style></defs><g class="transform-group"><g transform="scale(0.015625, 0.015625)"><path d="M903.795802 59.184961 122.373607 59.184961c-40.674375-0.509606-59.093886 32.747845-59.544141 59.544141L62.829466 900.151297c0.449231 31.914874 22.961968 59.032488 59.544141 59.544141l781.422196 0c26.224268-0.125867 59.737546-27.755134 59.544141-59.544141L963.339944 118.728078C962.765869 87.497796 938.20652 58.845223 903.795802 59.184961zM456.097294 812.085566c0 14.152325-11.546987 25.634844-25.815969 25.634844s-25.815969-11.482519-25.815969-25.634844c0-3.258207 0.693802-6.365988 1.806135-9.258874-21.766746-40.228213-64.448848-67.644633-113.657596-67.644633-16.308431 0-31.849382 0.393973-46.183855 3.504824-4.357238 8.05035-12.806677 13.58439-22.642696 13.58439-2.424212 0-4.731768-0.427742-6.954389-1.078565-0.553609 0.393973-1.131777 0.683569-1.655709 1.078565l0-1.568728c-9.986445-3.547803-17.20587-12.924357-17.20587-24.066115s7.220449-20.517289 17.21815-24.066115l0-1.567705c21.094434-9.165754 44.347021-17.089214 68.825528-17.089214 77.053933 0 150.153812 50.296523 172.081217 119.625518l-1.579985 0C455.479217 806.220998 456.097294 809.074999 456.097294 812.085566zM524.915659 837.72041c0 9.451256-7.691169 17.089214-17.20587 17.089214-9.496282 0-17.207917-7.637957-17.207917-17.089214L490.501872 700.426487c-200.811562-11.993149-275.322579-233.889935-275.322579-426.659333 34.413787-16.72594 153.689335 1.003863 172.08224 17.08819 18.669198-50.135864 51.940976-83.514065 120.459512-119.625518 67.751057 34.627658 102.047164 70.087265 120.447233 119.625518 17.422811-16.171308 154.542772-34.498722 172.083264-17.08819 0 193.111183-60.521398 415.424454-275.333836 426.694125L524.917706 837.72041zM800.261775 750.702544l0 1.568728c-0.534166-0.394996-1.102101-0.684592-1.656733-1.078565-2.242064 0.650823-4.52813 1.078565-6.952342 1.078565-9.826809 0-18.278295-5.53404-22.642696-13.58439-14.33652-3.110851-29.877471-3.504824-46.184879-3.504824-49.211818 0-91.889827 27.41642-113.64634 67.644633 1.111311 2.883677 1.782599 5.990434 1.782599 9.258874 0 14.152325-11.555174 25.634844-25.805736 25.634844-14.248516 0-25.813922-11.482519-25.813922-25.634844 0-3.009544 0.618077-5.863545 1.577938-8.54563l-1.577938 0c21.926382-69.328995 95.024214-119.625518 172.07917-119.625518 24.488741 0 47.733141 7.92346 68.828598 17.089214l0 1.582031c9.996678 3.5345 17.217127 12.910031 17.217127 24.051789S810.246173 747.155764 800.261775 750.702544z" fill="#ea8010"></path></g></g></svg>